<mxfile host="app.diagrams.net" modified="2023-03-24T12:55:00.667Z" agent="5.0 (Windows NT 10.0; Win64; x64) AppleWebKit/537.36 (KHTML, like Gecko) Chrome/108.0.0.0 YaBrowser/23.1.5.708 Yowser/2.5 Safari/537.36" etag="boVdKnx9kFuesfgO5rP9" version="21.0.10" type="github">
  <diagram id="prtHgNgQTEPvFCAcTncT" name="Page-1">
    <mxGraphModel dx="1336" dy="769" grid="1" gridSize="10" guides="1" tooltips="1" connect="1" arrows="1" fold="1" page="1" pageScale="1" pageWidth="827" pageHeight="1169" math="0" shadow="0">
      <root>
        <mxCell id="0" />
        <mxCell id="1" parent="0" />
        <mxCell id="dNxyNK7c78bLwvsdeMH5-11" value="Orgchart" style="swimlane;html=1;startSize=20;horizontal=1;containerType=tree;glass=0;" parent="1" vertex="1">
          <mxGeometry x="40" y="90" width="1010" height="650" as="geometry" />
        </mxCell>
        <mxCell id="PN8Pd2LD17tStuL4lsX1-11" value="&lt;font style=&quot;font-size: 18px;&quot;&gt;&lt;b&gt;Создание лабиринта&lt;/b&gt;&lt;/font&gt;" style="rounded=0;whiteSpace=wrap;html=1;" vertex="1" parent="dNxyNK7c78bLwvsdeMH5-11">
          <mxGeometry x="20" y="40" width="170" height="60" as="geometry" />
        </mxCell>
        <mxCell id="PN8Pd2LD17tStuL4lsX1-15" value="Orgchart" style="swimlane;html=1;startSize=20;horizontal=1;containerType=tree;glass=0;" vertex="1" parent="1">
          <mxGeometry x="40" y="90" width="1010" height="650" as="geometry" />
        </mxCell>
        <mxCell id="PN8Pd2LD17tStuL4lsX1-16" value="&lt;font style=&quot;font-size: 18px;&quot;&gt;&lt;b&gt;Создание лабиринта&lt;/b&gt;&lt;/font&gt;" style="rounded=0;whiteSpace=wrap;html=1;" vertex="1" parent="PN8Pd2LD17tStuL4lsX1-15">
          <mxGeometry x="20" y="40" width="170" height="60" as="geometry" />
        </mxCell>
        <mxCell id="PN8Pd2LD17tStuL4lsX1-17" value="&lt;font size=&quot;3&quot;&gt;&lt;b&gt;Интерфейс&lt;/b&gt;&lt;/font&gt;" style="rounded=0;whiteSpace=wrap;html=1;" vertex="1" parent="PN8Pd2LD17tStuL4lsX1-15">
          <mxGeometry x="20" y="320" width="170" height="60" as="geometry" />
        </mxCell>
        <mxCell id="PN8Pd2LD17tStuL4lsX1-18" value="&lt;font size=&quot;3&quot;&gt;Случайная генерация врагов, предметов и т.п.&lt;/font&gt;" style="rounded=0;whiteSpace=wrap;html=1;fontStyle=1" vertex="1" parent="PN8Pd2LD17tStuL4lsX1-15">
          <mxGeometry x="20" y="180" width="170" height="60" as="geometry" />
        </mxCell>
        <mxCell id="PN8Pd2LD17tStuL4lsX1-19" value="&lt;font size=&quot;3&quot;&gt;&lt;b&gt;Меню действия (инвентарь)&lt;/b&gt;&lt;/font&gt;" style="rounded=0;whiteSpace=wrap;html=1;" vertex="1" parent="PN8Pd2LD17tStuL4lsX1-15">
          <mxGeometry x="20" y="250" width="170" height="60" as="geometry" />
        </mxCell>
        <mxCell id="PN8Pd2LD17tStuL4lsX1-14" value="&lt;font size=&quot;3&quot;&gt;&lt;b&gt;Пошаговый бой&lt;/b&gt;&lt;/font&gt;" style="rounded=0;whiteSpace=wrap;html=1;" vertex="1" parent="PN8Pd2LD17tStuL4lsX1-15">
          <mxGeometry x="20" y="390" width="170" height="60" as="geometry" />
        </mxCell>
        <mxCell id="PN8Pd2LD17tStuL4lsX1-20" value="&lt;font size=&quot;3&quot;&gt;&lt;b&gt;Случайная генерация лабиринта&lt;/b&gt;&lt;/font&gt;" style="rounded=0;whiteSpace=wrap;html=1;" vertex="1" parent="PN8Pd2LD17tStuL4lsX1-15">
          <mxGeometry x="20" y="110" width="170" height="60" as="geometry" />
        </mxCell>
      </root>
    </mxGraphModel>
  </diagram>
</mxfile>
